<svg width="99" height="20" viewBox="0 0 99 20" fill="none" xmlns="http://www.w3.org/2000/svg">
<path d="M48.58 3.68V17.64H45.78V11.7H39.8V17.64H37V3.68H39.8V9.42H45.78V3.68H48.58ZM50.656 10.64C50.656 9.26666 50.9626 8.04 51.576 6.96C52.2026 5.86666 53.0493 5.02 54.116 4.42C55.196 3.80667 56.4026 3.5 57.736 3.5C59.296 3.5 60.6626 3.9 61.836 4.7C63.0093 5.5 63.8293 6.60666 64.296 8.02H61.076C60.756 7.35333 60.3026 6.85333 59.716 6.52C59.1426 6.18666 58.476 6.02 57.716 6.02C56.9026 6.02 56.176 6.21333 55.536 6.6C54.9093 6.97333 54.416 7.50666 54.056 8.2C53.7093 8.89333 53.536 9.70666 53.536 10.64C53.536 11.56 53.7093 12.3733 54.056 13.08C54.416 13.7734 54.9093 14.3134 55.536 14.7C56.176 15.0734 56.9026 15.26 57.716 15.26C58.476 15.26 59.1426 15.0934 59.716 14.76C60.3026 14.4134 60.756 13.9067 61.076 13.24H64.296C63.8293 14.6667 63.0093 15.78 61.836 16.58C60.676 17.3667 59.3093 17.76 57.736 17.76C56.4026 17.76 55.196 17.46 54.116 16.86C53.0493 16.2467 52.2026 15.4 51.576 14.32C50.9626 13.24 50.656 12.0133 50.656 10.64ZM65.9675 12.06C65.9675 10.94 66.1875 9.94666 66.6275 9.08C67.0809 8.21333 67.6875 7.54666 68.4475 7.08C69.2209 6.61333 70.0809 6.38 71.0275 6.38C71.8542 6.38 72.5742 6.54666 73.1875 6.88C73.8142 7.21333 74.3142 7.63333 74.6875 8.14V6.56H77.5075V17.64H74.6875V16.02C74.3275 16.54 73.8275 16.9734 73.1875 17.32C72.5609 17.6534 71.8342 17.82 71.0075 17.82C70.0742 17.82 69.2209 17.58 68.4475 17.1C67.6875 16.62 67.0809 15.9467 66.6275 15.08C66.1875 14.2 65.9675 13.1933 65.9675 12.06ZM74.6875 12.1C74.6875 11.42 74.5542 10.84 74.2875 10.36C74.0209 9.86666 73.6609 9.49333 73.2075 9.24C72.7542 8.97333 72.2675 8.84 71.7475 8.84C71.2275 8.84 70.7475 8.96666 70.3075 9.22C69.8675 9.47333 69.5075 9.84666 69.2275 10.34C68.9609 10.82 68.8275 11.3933 68.8275 12.06C68.8275 12.7267 68.9609 13.3133 69.2275 13.82C69.5075 14.3134 69.8675 14.6934 70.3075 14.96C70.7609 15.2267 71.2409 15.36 71.7475 15.36C72.2675 15.36 72.7542 15.2334 73.2075 14.98C73.6609 14.7134 74.0209 14.34 74.2875 13.86C74.5542 13.3667 74.6875 12.78 74.6875 12.1ZM83.0422 8.28C83.4022 7.69333 83.8689 7.23333 84.4422 6.9C85.0289 6.56666 85.6955 6.4 86.4422 6.4V9.34H85.7022C84.8222 9.34 84.1555 9.54666 83.7022 9.96C83.2622 10.3733 83.0422 11.0933 83.0422 12.12V17.64H80.2422V6.56H83.0422V8.28ZM98.6281 11.86C98.6281 12.26 98.6015 12.62 98.5481 12.94H90.4481C90.5148 13.74 90.7948 14.3667 91.2881 14.82C91.7815 15.2734 92.3881 15.5 93.1081 15.5C94.1481 15.5 94.8881 15.0534 95.3281 14.16H98.3481C98.0281 15.2267 97.4148 16.1067 96.5081 16.8C95.6015 17.48 94.4881 17.82 93.1681 17.82C92.1015 17.82 91.1415 17.5867 90.2881 17.12C89.4481 16.64 88.7881 15.9667 88.3081 15.1C87.8415 14.2334 87.6081 13.2333 87.6081 12.1C87.6081 10.9533 87.8415 9.94666 88.3081 9.08C88.7748 8.21333 89.4281 7.54666 90.2681 7.08C91.1081 6.61333 92.0748 6.38 93.1681 6.38C94.2215 6.38 95.1615 6.60666 95.9881 7.06C96.8281 7.51333 97.4748 8.16 97.9281 9C98.3948 9.82666 98.6281 10.78 98.6281 11.86ZM95.7281 11.06C95.7148 10.34 95.4548 9.76666 94.9481 9.34C94.4415 8.9 93.8215 8.68 93.0881 8.68C92.3948 8.68 91.8081 8.89333 91.3281 9.32C90.8615 9.73333 90.5748 10.3133 90.4681 11.06H95.7281Z" fill="#44444F"/>
<path d="M25 8V3H12C7.02944 3 3 7.02944 3 12V17H16C20.9706 17 25 12.9706 25 8ZM28 8C28 14.6274 22.6274 20 16 20H0V12C0 5.37258 5.37258 0 12 0H28V8Z" fill="#2BB567"/>
</svg>
